<?xml version="1.0" encoding="UTF-8"?><svg xmlns="http://www.w3.org/2000/svg" viewBox="0 0 436.24 96.58"><g id="a"/><g id="b"><g id="c"><polygon points="2.45 .13 2.45 15.64 55.78 15.64 0 80.12 0 96.45 77.41 96.45 77.41 80.94 20.95 80.94 76.59 16.59 76.59 .13 2.45 .13"/><path d="M300.05,27.61c0-7.62-4.9-11.97-14.69-11.97h-30.75V47.75h30.75c9.66,0,14.69-4.35,14.69-11.97v-8.17Zm16.73,.55v7.07c0,17.28-11.84,28.03-32.38,28.03h-29.79v33.19h-16.73V.13h46.39c20.54,0,32.51,10.75,32.51,28.03"/><path d="M419.51,27.61c0-7.62-4.9-11.97-14.69-11.97h-30.75V47.75h30.75c9.66,0,14.69-4.35,14.69-11.97v-8.17Zm16.73,.55v7.07c0,17.28-11.84,28.03-32.38,28.03h-29.79v33.19h-16.73V.13h46.39c20.54,0,32.52,10.75,32.52,28.03"/><path d="M196.42,0H117.13c0,20.68,8.29,39.31,30.46,48.31h0c-22.16,9.02-30.46,27.64-30.46,48.27h79.29v-15.14h-58.64c1.31-12.2,20.07-26.22,36.89-30.62v-5.01c-16.82-4.4-35.57-18.46-36.89-30.66h58.64V0Z"/></g></g></svg>